<svg width="60" height="60" viewBox="0 0 60 60" fill="none" xmlns="http://www.w3.org/2000/svg">
<path d="M2.71011e-06 29C4.108e-06 13.01 13.01 -4.108e-06 29 -2.71011e-06C39.64 -1.77993e-06 48.96 5.77 54 14.34L54 5L60 5L60 21C60 22.47 58.94 23.69 57.55 23.94C57.55 23.96 57.55 23.98 57.56 24L41 24L41 18L49.17 18C45.26 10.86 37.7 6 29 6C16.32 6 6 16.32 6 29L2.71011e-06 29ZM6 55L6 45.66C11.04 54.23 20.36 60 31 60C46.99 60 60 46.99 60 31L54 31C54 43.68 43.68 54 31 54C22.3 54 14.74 49.14 10.83 42L19 42L19 36L2.44 36C2.44 36 2.44 36.04 2.45 36.06C1.06 36.32 1.96352e-06 37.54 1.83588e-06 39L4.37114e-07 55L6 55Z" fill="url(#paint0_linear_1376_3021)"/>
<defs>
<linearGradient id="paint0_linear_1376_3021" x1="53.6122" y1="69.7674" x2="-0.0249233" y2="64.6599" gradientUnits="userSpaceOnUse">
<stop stop-color="#9321FF"/>
<stop offset="1" stop-color="#F913FF"/>
</linearGradient>
</defs>
</svg>
